# xmcd
#
# Track frame offsets: 
#        182
#        15760
#        34062
#        51412
#        68935
#        89877
#        111197
#        129167
#        148440
#        166587
#        185110
#        207645
#        229377
#
# Disc length: 3297 seconds
#
# Revision: 3
# Processed by: cddbd v1.5.2PL0 Copyright (c) Steve Scherf et al.
# Submitted via: ExactAudioCopyFreeDBPlugin 1.0
#
DISCID=c20cdf0d
DTITLE=田震 - 20世纪中华歌坛名人百集珍藏版
DYEAR=1999
DGENRE=Pop
TTITLE0=干杯，朋友
TTITLE1=顺其自然
TTITLE2=野花
TTITLE3=执着
TTITLE4=你的目光温暖了我
TTITLE5=为你而歌
TTITLE6=我热恋的故乡
TTITLE7=最后的夜
TTITLE8=心在一起
TTITLE9=你是否和我一样
TTITLE10=爱情守望者
TTITLE11=回来又去，去了又回
TTITLE12=乐园
EXTD=
EXTT0=
EXTT1=
EXTT2=
EXTT3=
EXTT4=
EXTT5=
EXTT6=
EXTT7=
EXTT8=
EXTT9=
EXTT10=
EXTT11=
EXTT12=
PLAYORDER=
